<?xml version="1.0" standalone="no"?>
<!DOCTYPE svg PUBLIC "-//W3C//DTD SVG 20010904//EN"
 "http://www.w3.org/TR/2001/REC-SVG-20010904/DTD/svg10.dtd">
<svg version="1.0" xmlns="http://www.w3.org/2000/svg"
 width="700.000000pt" height="700.000000pt" viewBox="0 0 700.000000 700.000000"
 preserveAspectRatio="xMidYMid meet">
<metadata>
Created by potrace 1.14, written by Peter Selinger 2001-2017
</metadata>
<g transform="translate(0.000000,700.000000) scale(0.100000,-0.100000)"
fill="#000000" stroke="none">
<path d="M2209 4073 c0 -681 -2 -1246 -4 -1255 -2 -9 -6 -35 -9 -56 -8 -60
-17 -92 -39 -147 -81 -197 -238 -291 -502 -299 -89 -3 -214 18 -265 44 -47 24
-151 102 -184 139 -19 21 -19 20 -250 -210 l-231 -230 64 -60 c59 -55 182
-149 195 -149 3 0 28 -13 55 -30 134 -79 332 -122 576 -125 340 -5 601 72 839
248 251 187 393 426 441 747 12 78 15 312 15 1357 l0 1263 -350 0 -350 0 -1
-1237z"/>
<path d="M3430 3500 l0 -1810 350 0 350 0 0 690 0 690 383 1 c210 1 393 2 407
3 278 28 436 78 614 198 84 57 232 208 291 297 163 248 218 572 150 888 -67
316 -291 599 -580 735 -38 18 -74 34 -80 35 -5 1 -48 14 -95 28 -166 50 -217
53 -1032 54 l-758 1 0 -1810z m1460 1176 c151 -21 285 -111 354 -237 76 -137
76 -360 0 -498 -54 -99 -157 -181 -264 -212 -25 -7 -52 -14 -60 -17 -8 -3
-189 -7 -402 -9 l-388 -5 0 489 c0 270 2 492 4 494 8 7 699 3 756 -5z"/>
</g>
</svg>
