<?xml version="1.0" encoding="UTF-8"?>
<svg id="Layer_1" data-name="Layer 1" xmlns="http://www.w3.org/2000/svg" width="79.99998" height="49.99998" viewBox="0 0 79.99998 49.99998">
  <defs>
    <style>
      .cls-1 {
        fill: #fff;
      }

      .cls-2 {
        fill: #e21e26;
      }

      .cls-3 {
        fill: #1b3360;
      }
    </style>
  </defs>
  <g>
    <rect class="cls-2" x="38.07692" y="8.07692" width="3.84613" height="80" transform="translate(-8.07694 88.07691) rotate(-90)"/>
    <rect class="cls-2" x="38.07695" y="-38.07692" width="3.84613" height="80" transform="translate(38.07694 41.92309) rotate(-90)"/>
    <rect class="cls-1" x="38.07692" y="4.23077" width="3.84613" height="80" transform="translate(-4.23078 84.23075) rotate(-90)"/>
    <g>
      <rect class="cls-2" x="38.07692" y=".38462" width="3.84613" height="80" transform="translate(-.38463 80.3846) rotate(-90)"/>
      <rect class="cls-1" x="38.07692" y="-3.46154" width="3.84613" height="80" transform="translate(3.46152 76.53845) rotate(-90)"/>
    </g>
    <g>
      <rect class="cls-2" x="38.07692" y="-7.30769" width="3.84613" height="80" transform="translate(7.30768 72.69229) rotate(-90)"/>
      <rect class="cls-1" x="38.07692" y="-11.15385" width="3.84613" height="80" transform="translate(11.15383 68.84614) rotate(-90)"/>
    </g>
    <g>
      <rect class="cls-2" x="38.07692" y="-15" width="3.84613" height="80" transform="translate(14.99998 64.99998) rotate(-90)"/>
      <rect class="cls-1" x="38.07692" y="-18.84615" width="3.84613" height="80" transform="translate(18.84614 61.15383) rotate(-90)"/>
    </g>
    <g>
      <rect class="cls-2" x="38.07695" y="-22.69231" width="3.84613" height="80" transform="translate(22.69232 57.30771) rotate(-90)"/>
      <rect class="cls-1" x="38.07695" y="-26.53846" width="3.84613" height="80" transform="translate(26.53848 53.46155) rotate(-90)"/>
    </g>
    <g>
      <rect class="cls-2" x="38.07695" y="-30.38462" width="3.84613" height="80" transform="translate(30.38463 49.6154) rotate(-90)"/>
      <rect class="cls-1" x="38.07695" y="-34.23077" width="3.84613" height="80" transform="translate(34.23078 45.76925) rotate(-90)"/>
    </g>
  </g>
  <rect class="cls-3" x=".00002" y="0" width="33" height="26.92306"/>
  <g>
    <g>
      <polygon class="cls-1" points="2.50751 .83656 2.861 1.85953 3.94314 1.87961 3.07947 2.53191 3.39478 3.56729 2.50751 2.94746 1.62025 3.56729 1.93556 2.53191 1.07189 1.87961 2.15402 1.85953 2.50751 .83656"/>
      <polygon class="cls-1" points="8.10451 .83656 8.458 1.85953 9.54014 1.87961 8.67647 2.53191 8.99178 3.56729 8.10451 2.94746 7.21725 3.56729 7.53256 2.53191 6.66889 1.87961 7.75103 1.85953 8.10451 .83656"/>
      <polygon class="cls-1" points="13.70152 .83656 14.055 1.85953 15.13714 1.87961 14.27347 2.53191 14.58878 3.56729 13.70152 2.94746 12.81425 3.56729 13.12956 2.53191 12.26589 1.87961 13.34803 1.85953 13.70152 .83656"/>
      <polygon class="cls-1" points="19.29852 .83656 19.65201 1.85953 20.73414 1.87961 19.87047 2.53191 20.18578 3.56729 19.29852 2.94746 18.41125 3.56729 18.72656 2.53191 17.86289 1.87961 18.94503 1.85953 19.29852 .83656"/>
      <polygon class="cls-1" points="24.89552 .83656 25.24901 1.85953 26.33114 1.87961 25.46747 2.53191 25.78278 3.56729 24.89552 2.94746 24.00825 3.56729 24.32356 2.53191 23.45989 1.87961 24.54203 1.85953 24.89552 .83656"/>
      <polygon class="cls-1" points="30.49252 .83656 30.84601 1.85953 31.92814 1.87961 31.06448 2.53191 31.37978 3.56729 30.49252 2.94746 29.60525 3.56729 29.92056 2.53191 29.05689 1.87961 30.13903 1.85953 30.49252 .83656"/>
    </g>
    <g>
      <polygon class="cls-1" points="2.50751 6.46636 2.861 7.48934 3.94314 7.50941 3.07947 8.16171 3.39478 9.19709 2.50751 8.57726 1.62025 9.19709 1.93556 8.16171 1.07189 7.50941 2.15402 7.48934 2.50751 6.46636"/>
      <polygon class="cls-1" points="8.10451 6.46636 8.458 7.48934 9.54014 7.50941 8.67647 8.16171 8.99178 9.19709 8.10451 8.57726 7.21725 9.19709 7.53256 8.16171 6.66889 7.50941 7.75103 7.48934 8.10451 6.46636"/>
      <polygon class="cls-1" points="13.70152 6.46636 14.055 7.48934 15.13714 7.50941 14.27347 8.16171 14.58878 9.19709 13.70152 8.57726 12.81425 9.19709 13.12956 8.16171 12.26589 7.50941 13.34803 7.48934 13.70152 6.46636"/>
      <polygon class="cls-1" points="19.29852 6.46636 19.65201 7.48934 20.73414 7.50941 19.87047 8.16171 20.18578 9.19709 19.29852 8.57726 18.41125 9.19709 18.72656 8.16171 17.86289 7.50941 18.94503 7.48934 19.29852 6.46636"/>
      <polygon class="cls-1" points="24.89552 6.46636 25.24901 7.48934 26.33114 7.50941 25.46747 8.16171 25.78278 9.19709 24.89552 8.57726 24.00825 9.19709 24.32356 8.16171 23.45989 7.50941 24.54203 7.48934 24.89552 6.46636"/>
      <polygon class="cls-1" points="30.49252 6.46636 30.84601 7.48934 31.92814 7.50941 31.06448 8.16171 31.37978 9.19709 30.49252 8.57726 29.60525 9.19709 29.92056 8.16171 29.05689 7.50941 30.13903 7.48934 30.49252 6.46636"/>
    </g>
    <g>
      <polygon class="cls-1" points="2.50751 12.09617 2.861 13.11914 3.94314 13.13921 3.07947 13.79151 3.39478 14.82689 2.50751 14.20707 1.62025 14.82689 1.93556 13.79151 1.07189 13.13921 2.15402 13.11914 2.50751 12.09617"/>
      <polygon class="cls-1" points="8.10451 12.09617 8.458 13.11914 9.54014 13.13921 8.67647 13.79151 8.99178 14.82689 8.10451 14.20707 7.21725 14.82689 7.53256 13.79151 6.66889 13.13921 7.75103 13.11914 8.10451 12.09617"/>
      <polygon class="cls-1" points="13.70152 12.09617 14.055 13.11914 15.13714 13.13921 14.27347 13.79151 14.58878 14.82689 13.70152 14.20707 12.81425 14.82689 13.12956 13.79151 12.26589 13.13921 13.34803 13.11914 13.70152 12.09617"/>
      <polygon class="cls-1" points="19.29852 12.09617 19.65201 13.11914 20.73414 13.13921 19.87047 13.79151 20.18578 14.82689 19.29852 14.20707 18.41125 14.82689 18.72656 13.79151 17.86289 13.13921 18.94503 13.11914 19.29852 12.09617"/>
      <polygon class="cls-1" points="24.89552 12.09617 25.24901 13.11914 26.33114 13.13921 25.46747 13.79151 25.78278 14.82689 24.89552 14.20707 24.00825 14.82689 24.32356 13.79151 23.45989 13.13921 24.54203 13.11914 24.89552 12.09617"/>
      <polygon class="cls-1" points="30.49252 12.09617 30.84601 13.11914 31.92814 13.13921 31.06448 13.79151 31.37978 14.82689 30.49252 14.20707 29.60525 14.82689 29.92056 13.79151 29.05689 13.13921 30.13903 13.11914 30.49252 12.09617"/>
    </g>
    <g>
      <polygon class="cls-1" points="2.50751 17.72597 2.861 18.74894 3.94314 18.76901 3.07947 19.42132 3.39478 20.45669 2.50751 19.83687 1.62025 20.45669 1.93556 19.42132 1.07189 18.76901 2.15402 18.74894 2.50751 17.72597"/>
      <polygon class="cls-1" points="8.10451 17.72597 8.458 18.74894 9.54014 18.76901 8.67647 19.42132 8.99178 20.45669 8.10451 19.83687 7.21725 20.45669 7.53256 19.42132 6.66889 18.76901 7.75103 18.74894 8.10451 17.72597"/>
      <polygon class="cls-1" points="13.70152 17.72597 14.055 18.74894 15.13714 18.76901 14.27347 19.42132 14.58878 20.45669 13.70152 19.83687 12.81425 20.45669 13.12956 19.42132 12.26589 18.76901 13.34803 18.74894 13.70152 17.72597"/>
      <polygon class="cls-1" points="19.29852 17.72597 19.65201 18.74894 20.73414 18.76901 19.87047 19.42132 20.18578 20.45669 19.29852 19.83687 18.41125 20.45669 18.72656 19.42132 17.86289 18.76901 18.94503 18.74894 19.29852 17.72597"/>
      <polygon class="cls-1" points="24.89552 17.72597 25.24901 18.74894 26.33114 18.76901 25.46747 19.42132 25.78278 20.45669 24.89552 19.83687 24.00825 20.45669 24.32356 19.42132 23.45989 18.76901 24.54203 18.74894 24.89552 17.72597"/>
      <polygon class="cls-1" points="30.49252 17.72597 30.84601 18.74894 31.92814 18.76901 31.06448 19.42132 31.37978 20.45669 30.49252 19.83687 29.60525 20.45669 29.92056 19.42132 29.05689 18.76901 30.13903 18.74894 30.49252 17.72597"/>
    </g>
    <g>
      <polygon class="cls-1" points="2.50751 23.35577 2.861 24.37874 3.94314 24.39881 3.07947 25.05112 3.39478 26.0865 2.50751 25.46667 1.62025 26.0865 1.93556 25.05112 1.07189 24.39881 2.15402 24.37874 2.50751 23.35577"/>
      <polygon class="cls-1" points="8.10451 23.35577 8.458 24.37874 9.54014 24.39881 8.67647 25.05112 8.99178 26.0865 8.10451 25.46667 7.21725 26.0865 7.53256 25.05112 6.66889 24.39881 7.75103 24.37874 8.10451 23.35577"/>
      <polygon class="cls-1" points="13.70152 23.35577 14.055 24.37874 15.13714 24.39881 14.27347 25.05112 14.58878 26.0865 13.70152 25.46667 12.81425 26.0865 13.12956 25.05112 12.26589 24.39881 13.34803 24.37874 13.70152 23.35577"/>
      <polygon class="cls-1" points="19.29852 23.35577 19.65201 24.37874 20.73414 24.39881 19.87047 25.05112 20.18578 26.0865 19.29852 25.46667 18.41125 26.0865 18.72656 25.05112 17.86289 24.39881 18.94503 24.37874 19.29852 23.35577"/>
      <polygon class="cls-1" points="24.89552 23.35577 25.24901 24.37874 26.33114 24.39881 25.46747 25.05112 25.78278 26.0865 24.89552 25.46667 24.00825 26.0865 24.32356 25.05112 23.45989 24.39881 24.54203 24.37874 24.89552 23.35577"/>
      <polygon class="cls-1" points="30.49252 23.35577 30.84601 24.37874 31.92814 24.39881 31.06448 25.05112 31.37978 26.0865 30.49252 25.46667 29.60525 26.0865 29.92056 25.05112 29.05689 24.39881 30.13903 24.37874 30.49252 23.35577"/>
    </g>
    <g>
      <polygon class="cls-1" points="5.30601 3.65146 5.6595 4.67443 6.74164 4.69451 5.87797 5.34681 6.19328 6.38219 5.30601 5.76236 4.41875 6.38219 4.73406 5.34681 3.87039 4.69451 4.95252 4.67443 5.30601 3.65146"/>
      <polygon class="cls-1" points="10.90301 3.65146 11.2565 4.67443 12.33864 4.69451 11.47497 5.34681 11.79028 6.38219 10.90301 5.76236 10.01575 6.38219 10.33106 5.34681 9.46739 4.69451 10.54953 4.67443 10.90301 3.65146"/>
      <polygon class="cls-1" points="16.50002 3.65146 16.8535 4.67443 17.93564 4.69451 17.07197 5.34681 17.38728 6.38219 16.50002 5.76236 15.61275 6.38219 15.92806 5.34681 15.06439 4.69451 16.14653 4.67443 16.50002 3.65146"/>
      <polygon class="cls-1" points="22.09702 3.65146 22.45051 4.67443 23.53264 4.69451 22.66897 5.34681 22.98428 6.38219 22.09702 5.76236 21.20975 6.38219 21.52506 5.34681 20.66139 4.69451 21.74353 4.67443 22.09702 3.65146"/>
      <polygon class="cls-1" points="27.69402 3.65146 28.04751 4.67443 29.12964 4.69451 28.26597 5.34681 28.58128 6.38219 27.69402 5.76236 26.80675 6.38219 27.12206 5.34681 26.25839 4.69451 27.34053 4.67443 27.69402 3.65146"/>
    </g>
    <g>
      <polygon class="cls-1" points="5.30601 9.28127 5.6595 10.30424 6.74164 10.32431 5.87797 10.97661 6.19328 12.01199 5.30601 11.39216 4.41875 12.01199 4.73406 10.97661 3.87039 10.32431 4.95252 10.30424 5.30601 9.28127"/>
      <polygon class="cls-1" points="10.90301 9.28127 11.2565 10.30424 12.33864 10.32431 11.47497 10.97661 11.79028 12.01199 10.90301 11.39216 10.01575 12.01199 10.33106 10.97661 9.46739 10.32431 10.54953 10.30424 10.90301 9.28127"/>
      <polygon class="cls-1" points="16.50002 9.28127 16.8535 10.30424 17.93564 10.32431 17.07197 10.97661 17.38728 12.01199 16.50002 11.39216 15.61275 12.01199 15.92806 10.97661 15.06439 10.32431 16.14653 10.30424 16.50002 9.28127"/>
      <polygon class="cls-1" points="22.09702 9.28127 22.45051 10.30424 23.53264 10.32431 22.66897 10.97661 22.98428 12.01199 22.09702 11.39216 21.20975 12.01199 21.52506 10.97661 20.66139 10.32431 21.74353 10.30424 22.09702 9.28127"/>
      <polygon class="cls-1" points="27.69402 9.28127 28.04751 10.30424 29.12964 10.32431 28.26597 10.97661 28.58128 12.01199 27.69402 11.39216 26.80675 12.01199 27.12206 10.97661 26.25839 10.32431 27.34053 10.30424 27.69402 9.28127"/>
    </g>
    <g>
      <polygon class="cls-1" points="5.30601 14.91107 5.6595 15.93404 6.74164 15.95411 5.87797 16.60642 6.19328 17.64179 5.30601 17.02197 4.41875 17.64179 4.73406 16.60642 3.87039 15.95411 4.95252 15.93404 5.30601 14.91107"/>
      <polygon class="cls-1" points="10.90301 14.91107 11.2565 15.93404 12.33864 15.95411 11.47497 16.60642 11.79028 17.64179 10.90301 17.02197 10.01575 17.64179 10.33106 16.60642 9.46739 15.95411 10.54953 15.93404 10.90301 14.91107"/>
      <polygon class="cls-1" points="16.50002 14.91107 16.8535 15.93404 17.93564 15.95411 17.07197 16.60642 17.38728 17.64179 16.50002 17.02197 15.61275 17.64179 15.92806 16.60642 15.06439 15.95411 16.14653 15.93404 16.50002 14.91107"/>
      <polygon class="cls-1" points="22.09702 14.91107 22.45051 15.93404 23.53264 15.95411 22.66897 16.60642 22.98428 17.64179 22.09702 17.02197 21.20975 17.64179 21.52506 16.60642 20.66139 15.95411 21.74353 15.93404 22.09702 14.91107"/>
      <polygon class="cls-1" points="27.69402 14.91107 28.04751 15.93404 29.12964 15.95411 28.26597 16.60642 28.58128 17.64179 27.69402 17.02197 26.80675 17.64179 27.12206 16.60642 26.25839 15.95411 27.34053 15.93404 27.69402 14.91107"/>
    </g>
    <g>
      <polygon class="cls-1" points="5.30601 20.54087 5.6595 21.56384 6.74164 21.58391 5.87797 22.23622 6.19328 23.27159 5.30601 22.65177 4.41875 23.27159 4.73406 22.23622 3.87039 21.58391 4.95252 21.56384 5.30601 20.54087"/>
      <polygon class="cls-1" points="10.90301 20.54087 11.2565 21.56384 12.33864 21.58391 11.47497 22.23622 11.79028 23.27159 10.90301 22.65177 10.01575 23.27159 10.33106 22.23622 9.46739 21.58391 10.54953 21.56384 10.90301 20.54087"/>
      <polygon class="cls-1" points="16.50002 20.54087 16.8535 21.56384 17.93564 21.58391 17.07197 22.23622 17.38728 23.27159 16.50002 22.65177 15.61275 23.27159 15.92806 22.23622 15.06439 21.58391 16.14653 21.56384 16.50002 20.54087"/>
      <polygon class="cls-1" points="22.09702 20.54087 22.45051 21.56384 23.53264 21.58391 22.66897 22.23622 22.98428 23.27159 22.09702 22.65177 21.20975 23.27159 21.52506 22.23622 20.66139 21.58391 21.74353 21.56384 22.09702 20.54087"/>
      <polygon class="cls-1" points="27.69402 20.54087 28.04751 21.56384 29.12964 21.58391 28.26597 22.23622 28.58128 23.27159 27.69402 22.65177 26.80675 23.27159 27.12206 22.23622 26.25839 21.58391 27.34053 21.56384 27.69402 20.54087"/>
    </g>
  </g>
</svg>