<?xml version="1.0" encoding="UTF-8"?>
<svg id="Layer_1" data-name="Layer 1" xmlns="http://www.w3.org/2000/svg" width="100" height="100" viewBox="0 0 100 100">
  <defs>
    <style>
      .cls-1 {
        fill: #fff;
      }

      .cls-2 {
        fill: #e21e26;
      }

      .cls-3 {
        fill: #1b3360;
      }
    </style>
  </defs>
  <g>
    <rect class="cls-2" x="48.07692" y="33.07692" width="3.84613" height="80" transform="translate(-23.07694 123.07691) rotate(-90)"/>
    <rect class="cls-2" x="48.07695" y="-13.07692" width="3.84613" height="80" transform="translate(23.07694 76.92309) rotate(-90)"/>
    <rect class="cls-1" x="48.07692" y="29.23077" width="3.84613" height="80" transform="translate(-19.23078 119.23075) rotate(-90)"/>
    <g>
      <rect class="cls-2" x="48.07692" y="25.38462" width="3.84613" height="80" transform="translate(-15.38463 115.3846) rotate(-90)"/>
      <rect class="cls-1" x="48.07692" y="21.53846" width="3.84613" height="80" transform="translate(-11.53848 111.53845) rotate(-90)"/>
    </g>
    <g>
      <rect class="cls-2" x="48.07692" y="17.69231" width="3.84613" height="80" transform="translate(-7.69232 107.69229) rotate(-90)"/>
      <rect class="cls-1" x="48.07692" y="13.84615" width="3.84613" height="80" transform="translate(-3.84617 103.84614) rotate(-90)"/>
    </g>
    <g>
      <rect class="cls-2" x="48.07692" y="10" width="3.84613" height="80" transform="translate(-.00002 99.99998) rotate(-90)"/>
      <rect class="cls-1" x="48.07692" y="6.15385" width="3.84613" height="80" transform="translate(3.84614 96.15383) rotate(-90)"/>
    </g>
    <g>
      <rect class="cls-2" x="48.07695" y="2.30769" width="3.84613" height="80" transform="translate(7.69232 92.30771) rotate(-90)"/>
      <rect class="cls-1" x="48.07695" y="-1.53846" width="3.84613" height="80" transform="translate(11.53848 88.46155) rotate(-90)"/>
    </g>
    <g>
      <rect class="cls-2" x="48.07695" y="-5.38462" width="3.84613" height="80" transform="translate(15.38463 84.6154) rotate(-90)"/>
      <rect class="cls-1" x="48.07695" y="-9.23077" width="3.84613" height="80" transform="translate(19.23078 80.76925) rotate(-90)"/>
    </g>
  </g>
  <rect class="cls-3" x="10.00002" y="25" width="33" height="26.92306"/>
  <g>
    <g>
      <polygon class="cls-1" points="12.50751 25.83656 12.861 26.85953 13.94314 26.87961 13.07947 27.53191 13.39478 28.56729 12.50751 27.94746 11.62025 28.56729 11.93556 27.53191 11.07189 26.87961 12.15402 26.85953 12.50751 25.83656"/>
      <polygon class="cls-1" points="18.10451 25.83656 18.458 26.85953 19.54014 26.87961 18.67647 27.53191 18.99178 28.56729 18.10451 27.94746 17.21725 28.56729 17.53256 27.53191 16.66889 26.87961 17.75103 26.85953 18.10451 25.83656"/>
      <polygon class="cls-1" points="23.70152 25.83656 24.055 26.85953 25.13714 26.87961 24.27347 27.53191 24.58878 28.56729 23.70152 27.94746 22.81425 28.56729 23.12956 27.53191 22.26589 26.87961 23.34803 26.85953 23.70152 25.83656"/>
      <polygon class="cls-1" points="29.29852 25.83656 29.65201 26.85953 30.73414 26.87961 29.87047 27.53191 30.18578 28.56729 29.29852 27.94746 28.41125 28.56729 28.72656 27.53191 27.86289 26.87961 28.94503 26.85953 29.29852 25.83656"/>
      <polygon class="cls-1" points="34.89552 25.83656 35.24901 26.85953 36.33114 26.87961 35.46747 27.53191 35.78278 28.56729 34.89552 27.94746 34.00825 28.56729 34.32356 27.53191 33.45989 26.87961 34.54203 26.85953 34.89552 25.83656"/>
      <polygon class="cls-1" points="40.49252 25.83656 40.84601 26.85953 41.92814 26.87961 41.06448 27.53191 41.37978 28.56729 40.49252 27.94746 39.60525 28.56729 39.92056 27.53191 39.05689 26.87961 40.13903 26.85953 40.49252 25.83656"/>
    </g>
    <g>
      <polygon class="cls-1" points="12.50751 31.46636 12.861 32.48934 13.94314 32.50941 13.07947 33.16171 13.39478 34.19709 12.50751 33.57726 11.62025 34.19709 11.93556 33.16171 11.07189 32.50941 12.15402 32.48934 12.50751 31.46636"/>
      <polygon class="cls-1" points="18.10451 31.46636 18.458 32.48934 19.54014 32.50941 18.67647 33.16171 18.99178 34.19709 18.10451 33.57726 17.21725 34.19709 17.53256 33.16171 16.66889 32.50941 17.75103 32.48934 18.10451 31.46636"/>
      <polygon class="cls-1" points="23.70152 31.46636 24.055 32.48934 25.13714 32.50941 24.27347 33.16171 24.58878 34.19709 23.70152 33.57726 22.81425 34.19709 23.12956 33.16171 22.26589 32.50941 23.34803 32.48934 23.70152 31.46636"/>
      <polygon class="cls-1" points="29.29852 31.46636 29.65201 32.48934 30.73414 32.50941 29.87047 33.16171 30.18578 34.19709 29.29852 33.57726 28.41125 34.19709 28.72656 33.16171 27.86289 32.50941 28.94503 32.48934 29.29852 31.46636"/>
      <polygon class="cls-1" points="34.89552 31.46636 35.24901 32.48934 36.33114 32.50941 35.46747 33.16171 35.78278 34.19709 34.89552 33.57726 34.00825 34.19709 34.32356 33.16171 33.45989 32.50941 34.54203 32.48934 34.89552 31.46636"/>
      <polygon class="cls-1" points="40.49252 31.46636 40.84601 32.48934 41.92814 32.50941 41.06448 33.16171 41.37978 34.19709 40.49252 33.57726 39.60525 34.19709 39.92056 33.16171 39.05689 32.50941 40.13903 32.48934 40.49252 31.46636"/>
    </g>
    <g>
      <polygon class="cls-1" points="12.50751 37.09617 12.861 38.11914 13.94314 38.13921 13.07947 38.79151 13.39478 39.82689 12.50751 39.20707 11.62025 39.82689 11.93556 38.79151 11.07189 38.13921 12.15402 38.11914 12.50751 37.09617"/>
      <polygon class="cls-1" points="18.10451 37.09617 18.458 38.11914 19.54014 38.13921 18.67647 38.79151 18.99178 39.82689 18.10451 39.20707 17.21725 39.82689 17.53256 38.79151 16.66889 38.13921 17.75103 38.11914 18.10451 37.09617"/>
      <polygon class="cls-1" points="23.70152 37.09617 24.055 38.11914 25.13714 38.13921 24.27347 38.79151 24.58878 39.82689 23.70152 39.20707 22.81425 39.82689 23.12956 38.79151 22.26589 38.13921 23.34803 38.11914 23.70152 37.09617"/>
      <polygon class="cls-1" points="29.29852 37.09617 29.65201 38.11914 30.73414 38.13921 29.87047 38.79151 30.18578 39.82689 29.29852 39.20707 28.41125 39.82689 28.72656 38.79151 27.86289 38.13921 28.94503 38.11914 29.29852 37.09617"/>
      <polygon class="cls-1" points="34.89552 37.09617 35.24901 38.11914 36.33114 38.13921 35.46747 38.79151 35.78278 39.82689 34.89552 39.20707 34.00825 39.82689 34.32356 38.79151 33.45989 38.13921 34.54203 38.11914 34.89552 37.09617"/>
      <polygon class="cls-1" points="40.49252 37.09617 40.84601 38.11914 41.92814 38.13921 41.06448 38.79151 41.37978 39.82689 40.49252 39.20707 39.60525 39.82689 39.92056 38.79151 39.05689 38.13921 40.13903 38.11914 40.49252 37.09617"/>
    </g>
    <g>
      <polygon class="cls-1" points="12.50751 42.72597 12.861 43.74894 13.94314 43.76901 13.07947 44.42132 13.39478 45.45669 12.50751 44.83687 11.62025 45.45669 11.93556 44.42132 11.07189 43.76901 12.15402 43.74894 12.50751 42.72597"/>
      <polygon class="cls-1" points="18.10451 42.72597 18.458 43.74894 19.54014 43.76901 18.67647 44.42132 18.99178 45.45669 18.10451 44.83687 17.21725 45.45669 17.53256 44.42132 16.66889 43.76901 17.75103 43.74894 18.10451 42.72597"/>
      <polygon class="cls-1" points="23.70152 42.72597 24.055 43.74894 25.13714 43.76901 24.27347 44.42132 24.58878 45.45669 23.70152 44.83687 22.81425 45.45669 23.12956 44.42132 22.26589 43.76901 23.34803 43.74894 23.70152 42.72597"/>
      <polygon class="cls-1" points="29.29852 42.72597 29.65201 43.74894 30.73414 43.76901 29.87047 44.42132 30.18578 45.45669 29.29852 44.83687 28.41125 45.45669 28.72656 44.42132 27.86289 43.76901 28.94503 43.74894 29.29852 42.72597"/>
      <polygon class="cls-1" points="34.89552 42.72597 35.24901 43.74894 36.33114 43.76901 35.46747 44.42132 35.78278 45.45669 34.89552 44.83687 34.00825 45.45669 34.32356 44.42132 33.45989 43.76901 34.54203 43.74894 34.89552 42.72597"/>
      <polygon class="cls-1" points="40.49252 42.72597 40.84601 43.74894 41.92814 43.76901 41.06448 44.42132 41.37978 45.45669 40.49252 44.83687 39.60525 45.45669 39.92056 44.42132 39.05689 43.76901 40.13903 43.74894 40.49252 42.72597"/>
    </g>
    <g>
      <polygon class="cls-1" points="12.50751 48.35577 12.861 49.37874 13.94314 49.39881 13.07947 50.05112 13.39478 51.0865 12.50751 50.46667 11.62025 51.0865 11.93556 50.05112 11.07189 49.39881 12.15402 49.37874 12.50751 48.35577"/>
      <polygon class="cls-1" points="18.10451 48.35577 18.458 49.37874 19.54014 49.39881 18.67647 50.05112 18.99178 51.0865 18.10451 50.46667 17.21725 51.0865 17.53256 50.05112 16.66889 49.39881 17.75103 49.37874 18.10451 48.35577"/>
      <polygon class="cls-1" points="23.70152 48.35577 24.055 49.37874 25.13714 49.39881 24.27347 50.05112 24.58878 51.0865 23.70152 50.46667 22.81425 51.0865 23.12956 50.05112 22.26589 49.39881 23.34803 49.37874 23.70152 48.35577"/>
      <polygon class="cls-1" points="29.29852 48.35577 29.65201 49.37874 30.73414 49.39881 29.87047 50.05112 30.18578 51.0865 29.29852 50.46667 28.41125 51.0865 28.72656 50.05112 27.86289 49.39881 28.94503 49.37874 29.29852 48.35577"/>
      <polygon class="cls-1" points="34.89552 48.35577 35.24901 49.37874 36.33114 49.39881 35.46747 50.05112 35.78278 51.0865 34.89552 50.46667 34.00825 51.0865 34.32356 50.05112 33.45989 49.39881 34.54203 49.37874 34.89552 48.35577"/>
      <polygon class="cls-1" points="40.49252 48.35577 40.84601 49.37874 41.92814 49.39881 41.06448 50.05112 41.37978 51.0865 40.49252 50.46667 39.60525 51.0865 39.92056 50.05112 39.05689 49.39881 40.13903 49.37874 40.49252 48.35577"/>
    </g>
    <g>
      <polygon class="cls-1" points="15.30601 28.65146 15.6595 29.67443 16.74164 29.69451 15.87797 30.34681 16.19328 31.38219 15.30601 30.76236 14.41875 31.38219 14.73406 30.34681 13.87039 29.69451 14.95252 29.67443 15.30601 28.65146"/>
      <polygon class="cls-1" points="20.90301 28.65146 21.2565 29.67443 22.33864 29.69451 21.47497 30.34681 21.79028 31.38219 20.90301 30.76236 20.01575 31.38219 20.33106 30.34681 19.46739 29.69451 20.54953 29.67443 20.90301 28.65146"/>
      <polygon class="cls-1" points="26.50002 28.65146 26.8535 29.67443 27.93564 29.69451 27.07197 30.34681 27.38728 31.38219 26.50002 30.76236 25.61275 31.38219 25.92806 30.34681 25.06439 29.69451 26.14653 29.67443 26.50002 28.65146"/>
      <polygon class="cls-1" points="32.09702 28.65146 32.45051 29.67443 33.53264 29.69451 32.66897 30.34681 32.98428 31.38219 32.09702 30.76236 31.20975 31.38219 31.52506 30.34681 30.66139 29.69451 31.74353 29.67443 32.09702 28.65146"/>
      <polygon class="cls-1" points="37.69402 28.65146 38.04751 29.67443 39.12964 29.69451 38.26597 30.34681 38.58128 31.38219 37.69402 30.76236 36.80675 31.38219 37.12206 30.34681 36.25839 29.69451 37.34053 29.67443 37.69402 28.65146"/>
    </g>
    <g>
      <polygon class="cls-1" points="15.30601 34.28127 15.6595 35.30424 16.74164 35.32431 15.87797 35.97661 16.19328 37.01199 15.30601 36.39216 14.41875 37.01199 14.73406 35.97661 13.87039 35.32431 14.95252 35.30424 15.30601 34.28127"/>
      <polygon class="cls-1" points="20.90301 34.28127 21.2565 35.30424 22.33864 35.32431 21.47497 35.97661 21.79028 37.01199 20.90301 36.39216 20.01575 37.01199 20.33106 35.97661 19.46739 35.32431 20.54953 35.30424 20.90301 34.28127"/>
      <polygon class="cls-1" points="26.50002 34.28127 26.8535 35.30424 27.93564 35.32431 27.07197 35.97661 27.38728 37.01199 26.50002 36.39216 25.61275 37.01199 25.92806 35.97661 25.06439 35.32431 26.14653 35.30424 26.50002 34.28127"/>
      <polygon class="cls-1" points="32.09702 34.28127 32.45051 35.30424 33.53264 35.32431 32.66897 35.97661 32.98428 37.01199 32.09702 36.39216 31.20975 37.01199 31.52506 35.97661 30.66139 35.32431 31.74353 35.30424 32.09702 34.28127"/>
      <polygon class="cls-1" points="37.69402 34.28127 38.04751 35.30424 39.12964 35.32431 38.26597 35.97661 38.58128 37.01199 37.69402 36.39216 36.80675 37.01199 37.12206 35.97661 36.25839 35.32431 37.34053 35.30424 37.69402 34.28127"/>
    </g>
    <g>
      <polygon class="cls-1" points="15.30601 39.91107 15.6595 40.93404 16.74164 40.95411 15.87797 41.60642 16.19328 42.64179 15.30601 42.02197 14.41875 42.64179 14.73406 41.60642 13.87039 40.95411 14.95252 40.93404 15.30601 39.91107"/>
      <polygon class="cls-1" points="20.90301 39.91107 21.2565 40.93404 22.33864 40.95411 21.47497 41.60642 21.79028 42.64179 20.90301 42.02197 20.01575 42.64179 20.33106 41.60642 19.46739 40.95411 20.54953 40.93404 20.90301 39.91107"/>
      <polygon class="cls-1" points="26.50002 39.91107 26.8535 40.93404 27.93564 40.95411 27.07197 41.60642 27.38728 42.64179 26.50002 42.02197 25.61275 42.64179 25.92806 41.60642 25.06439 40.95411 26.14653 40.93404 26.50002 39.91107"/>
      <polygon class="cls-1" points="32.09702 39.91107 32.45051 40.93404 33.53264 40.95411 32.66897 41.60642 32.98428 42.64179 32.09702 42.02197 31.20975 42.64179 31.52506 41.60642 30.66139 40.95411 31.74353 40.93404 32.09702 39.91107"/>
      <polygon class="cls-1" points="37.69402 39.91107 38.04751 40.93404 39.12964 40.95411 38.26597 41.60642 38.58128 42.64179 37.69402 42.02197 36.80675 42.64179 37.12206 41.60642 36.25839 40.95411 37.34053 40.93404 37.69402 39.91107"/>
    </g>
    <g>
      <polygon class="cls-1" points="15.30601 45.54087 15.6595 46.56384 16.74164 46.58391 15.87797 47.23622 16.19328 48.27159 15.30601 47.65177 14.41875 48.27159 14.73406 47.23622 13.87039 46.58391 14.95252 46.56384 15.30601 45.54087"/>
      <polygon class="cls-1" points="20.90301 45.54087 21.2565 46.56384 22.33864 46.58391 21.47497 47.23622 21.79028 48.27159 20.90301 47.65177 20.01575 48.27159 20.33106 47.23622 19.46739 46.58391 20.54953 46.56384 20.90301 45.54087"/>
      <polygon class="cls-1" points="26.50002 45.54087 26.8535 46.56384 27.93564 46.58391 27.07197 47.23622 27.38728 48.27159 26.50002 47.65177 25.61275 48.27159 25.92806 47.23622 25.06439 46.58391 26.14653 46.56384 26.50002 45.54087"/>
      <polygon class="cls-1" points="32.09702 45.54087 32.45051 46.56384 33.53264 46.58391 32.66897 47.23622 32.98428 48.27159 32.09702 47.65177 31.20975 48.27159 31.52506 47.23622 30.66139 46.58391 31.74353 46.56384 32.09702 45.54087"/>
      <polygon class="cls-1" points="37.69402 45.54087 38.04751 46.56384 39.12964 46.58391 38.26597 47.23622 38.58128 48.27159 37.69402 47.65177 36.80675 48.27159 37.12206 47.23622 36.25839 46.58391 37.34053 46.56384 37.69402 45.54087"/>
    </g>
  </g>
</svg>